<svg width="16" height="16" viewBox="0 0 16 16" xmlns="http://www.w3.org/2000/svg"><path d="M13.8 11.609V13.4a.4.4 0 0 1-.4.4H2.6a.4.4 0 0 1-.4-.4v-1.791H1V13.4A1.6 1.6 0 0 0 2.6 15h10.8a1.6 1.6 0 0 0 1.6-1.6v-1.791h-1.2ZM13.8 4.997H15V2.6A1.6 1.6 0 0 0 13.4 1H2.6A1.6 1.6 0 0 0 1 2.6v2.397h1.2V2.6c0-.22.18-.4.4-.4h10.8c.22 0 .4.18.4.4v2.397Z"/><path d="M8 11.095c-1.92 0-3.837-.919-5.749-2.757L2 8.095l.251-.242c3.815-3.677 7.683-3.677 11.498 0l.251.242-.251.243C11.84 10.176 9.925 11.095 8 11.096Zm-5.02-3c3.375 3.1 6.665 3.1 10.04 0-3.375-3.1-6.665-3.095-10.04 0Z"/><path fill-rule="evenodd" clip-rule="evenodd" d="M13.514 8.095c-3.676 3.543-7.352 3.543-11.028 0 3.676-3.542 7.352-3.542 11.028 0Zm-3.586 0A1.926 1.926 0 0 1 8 10.02a1.926 1.926 0 0 1-1.928-1.924c0-1.062.863-1.924 1.928-1.924s1.928.862 1.928 1.924Z"/><path d="M8 8.861a.767.767 0 1 0 .002-1.533A.767.767 0 0 0 8 8.86Z"/></svg>
